<mxfile host="www.draw.io" modified="2020-03-10T09:48:17.343Z" agent="Mozilla/5.0 (Macintosh; Intel Mac OS X 10_15_3) AppleWebKit/537.36 (KHTML, like Gecko) Chrome/80.0.3987.132 Safari/537.36" etag="OTG9k0AG2AXyeidr2lJh" version="12.8.2" type="github">
  <diagram id="3Wh6ztW_ydWoCx_m_JJ4" name="第 1 页">
    <mxGraphModel dx="1426" dy="722" grid="1" gridSize="10" guides="1" tooltips="1" connect="1" arrows="1" fold="1" page="1" pageScale="1" pageWidth="827" pageHeight="1169" math="0" shadow="0">
      <root>
        <mxCell id="0" />
        <mxCell id="1" parent="0" />
        <mxCell id="UR_d2A2pO-AxSZEn4ICj-1" value="" style="edgeStyle=orthogonalEdgeStyle;rounded=0;orthogonalLoop=1;jettySize=auto;html=1;" parent="1" source="UR_d2A2pO-AxSZEn4ICj-2" target="UR_d2A2pO-AxSZEn4ICj-4" edge="1">
          <mxGeometry relative="1" as="geometry" />
        </mxCell>
        <mxCell id="UR_d2A2pO-AxSZEn4ICj-2" value="自动生成运营任务" style="rounded=1;whiteSpace=wrap;html=1;" parent="1" vertex="1">
          <mxGeometry x="40" y="230" width="50" height="120" as="geometry" />
        </mxCell>
        <mxCell id="UR_d2A2pO-AxSZEn4ICj-3" value="" style="edgeStyle=orthogonalEdgeStyle;rounded=0;orthogonalLoop=1;jettySize=auto;html=1;" parent="1" source="UR_d2A2pO-AxSZEn4ICj-4" target="UR_d2A2pO-AxSZEn4ICj-6" edge="1">
          <mxGeometry relative="1" as="geometry" />
        </mxCell>
        <mxCell id="UR_d2A2pO-AxSZEn4ICj-4" value="查询启用状态下&lt;br&gt;任务模板的触发条件&lt;br&gt;分页去处理" style="rounded=0;whiteSpace=wrap;html=1;" parent="1" vertex="1">
          <mxGeometry x="120" y="230" width="70" height="120" as="geometry" />
        </mxCell>
        <mxCell id="UR_d2A2pO-AxSZEn4ICj-5" value="" style="edgeStyle=orthogonalEdgeStyle;rounded=0;orthogonalLoop=1;jettySize=auto;html=1;" parent="1" source="UR_d2A2pO-AxSZEn4ICj-6" target="UR_d2A2pO-AxSZEn4ICj-10" edge="1">
          <mxGeometry relative="1" as="geometry" />
        </mxCell>
        <mxCell id="UR_d2A2pO-AxSZEn4ICj-6" value="查询触发条件所属模板&lt;br&gt;查询模板所属渠道商" style="rounded=0;whiteSpace=wrap;html=1;" parent="1" vertex="1">
          <mxGeometry x="220" y="230" width="70" height="120" as="geometry" />
        </mxCell>
        <mxCell id="UR_d2A2pO-AxSZEn4ICj-7" value="" style="edgeStyle=orthogonalEdgeStyle;rounded=0;orthogonalLoop=1;jettySize=auto;html=1;exitX=0.5;exitY=1;exitDx=0;exitDy=0;entryX=0;entryY=0.5;entryDx=0;entryDy=0;" parent="1" source="UR_d2A2pO-AxSZEn4ICj-10" target="UR_d2A2pO-AxSZEn4ICj-11" edge="1">
          <mxGeometry relative="1" as="geometry" />
        </mxCell>
        <mxCell id="UR_d2A2pO-AxSZEn4ICj-8" style="edgeStyle=orthogonalEdgeStyle;rounded=0;orthogonalLoop=1;jettySize=auto;html=1;exitX=0.5;exitY=0;exitDx=0;exitDy=0;entryX=0;entryY=0.5;entryDx=0;entryDy=0;" parent="1" source="UR_d2A2pO-AxSZEn4ICj-10" target="UR_d2A2pO-AxSZEn4ICj-13" edge="1">
          <mxGeometry relative="1" as="geometry" />
        </mxCell>
        <mxCell id="UR_d2A2pO-AxSZEn4ICj-9" value="" style="edgeStyle=orthogonalEdgeStyle;rounded=0;orthogonalLoop=1;jettySize=auto;html=1;exitX=1;exitY=0.5;exitDx=0;exitDy=0;entryX=0;entryY=0.5;entryDx=0;entryDy=0;" parent="1" source="UR_d2A2pO-AxSZEn4ICj-11" target="UR_d2A2pO-AxSZEn4ICj-16" edge="1">
          <mxGeometry relative="1" as="geometry">
            <mxPoint x="390" y="560" as="targetPoint" />
          </mxGeometry>
        </mxCell>
        <mxCell id="UR_d2A2pO-AxSZEn4ICj-10" value="查询渠道商下所有客户id&lt;br&gt;过滤符合条件的目标客户id" style="rounded=0;whiteSpace=wrap;html=1;" parent="1" vertex="1">
          <mxGeometry x="320" y="230" width="80" height="120" as="geometry" />
        </mxCell>
        <mxCell id="UR_d2A2pO-AxSZEn4ICj-11" value="筛选满足标签条件的客户id" style="rounded=0;whiteSpace=wrap;html=1;" parent="1" vertex="1">
          <mxGeometry x="430" y="370" width="50" height="120" as="geometry" />
        </mxCell>
        <mxCell id="UR_d2A2pO-AxSZEn4ICj-12" style="edgeStyle=orthogonalEdgeStyle;rounded=0;orthogonalLoop=1;jettySize=auto;html=1;exitX=1;exitY=0.5;exitDx=0;exitDy=0;entryX=0;entryY=0.5;entryDx=0;entryDy=0;" parent="1" source="UR_d2A2pO-AxSZEn4ICj-13" target="UR_d2A2pO-AxSZEn4ICj-16" edge="1">
          <mxGeometry relative="1" as="geometry">
            <mxPoint x="390" y="560" as="targetPoint" />
          </mxGeometry>
        </mxCell>
        <mxCell id="UR_d2A2pO-AxSZEn4ICj-13" value="筛选满足断约条件的客户id" style="rounded=0;whiteSpace=wrap;html=1;" parent="1" vertex="1">
          <mxGeometry x="430" y="100" width="50" height="110" as="geometry" />
        </mxCell>
        <mxCell id="UR_d2A2pO-AxSZEn4ICj-14" value="" style="edgeStyle=orthogonalEdgeStyle;rounded=0;orthogonalLoop=1;jettySize=auto;html=1;entryX=0;entryY=0.5;entryDx=0;entryDy=0;" parent="1" source="UR_d2A2pO-AxSZEn4ICj-16" target="UR_d2A2pO-AxSZEn4ICj-18" edge="1">
          <mxGeometry relative="1" as="geometry">
            <mxPoint x="430" y="720" as="targetPoint" />
          </mxGeometry>
        </mxCell>
        <mxCell id="UR_d2A2pO-AxSZEn4ICj-30" style="edgeStyle=orthogonalEdgeStyle;rounded=0;orthogonalLoop=1;jettySize=auto;html=1;exitX=0.5;exitY=1;exitDx=0;exitDy=0;entryX=0.5;entryY=1;entryDx=0;entryDy=0;" parent="1" source="UR_d2A2pO-AxSZEn4ICj-16" target="UR_d2A2pO-AxSZEn4ICj-20" edge="1">
          <mxGeometry relative="1" as="geometry">
            <Array as="points">
              <mxPoint x="635" y="430" />
              <mxPoint x="870" y="430" />
            </Array>
          </mxGeometry>
        </mxCell>
        <mxCell id="UR_d2A2pO-AxSZEn4ICj-16" value="是否为单个&lt;br&gt;触发条件" style="rhombus;whiteSpace=wrap;html=1;rounded=0;" parent="1" vertex="1">
          <mxGeometry x="580" y="245" width="110" height="90" as="geometry" />
        </mxCell>
        <mxCell id="UR_d2A2pO-AxSZEn4ICj-17" value="" style="edgeStyle=orthogonalEdgeStyle;rounded=0;orthogonalLoop=1;jettySize=auto;html=1;" parent="1" source="UR_d2A2pO-AxSZEn4ICj-18" target="UR_d2A2pO-AxSZEn4ICj-20" edge="1">
          <mxGeometry relative="1" as="geometry" />
        </mxCell>
        <mxCell id="UR_d2A2pO-AxSZEn4ICj-18" value="取多个子触发条件筛选出的&lt;br&gt;客户id并集" style="rounded=0;whiteSpace=wrap;html=1;" parent="1" vertex="1">
          <mxGeometry x="720" y="237.5" width="80" height="105" as="geometry" />
        </mxCell>
        <mxCell id="UR_d2A2pO-AxSZEn4ICj-19" value="" style="edgeStyle=orthogonalEdgeStyle;rounded=0;orthogonalLoop=1;jettySize=auto;html=1;entryX=0;entryY=0.5;entryDx=0;entryDy=0;" parent="1" source="UR_d2A2pO-AxSZEn4ICj-20" target="UR_d2A2pO-AxSZEn4ICj-22" edge="1">
          <mxGeometry relative="1" as="geometry">
            <mxPoint x="430" y="900" as="targetPoint" />
          </mxGeometry>
        </mxCell>
        <mxCell id="UR_d2A2pO-AxSZEn4ICj-20" value="需要生成任务的目标客户id" style="rounded=0;whiteSpace=wrap;html=1;" parent="1" vertex="1">
          <mxGeometry x="840" y="237.5" width="60" height="105" as="geometry" />
        </mxCell>
        <mxCell id="UR_d2A2pO-AxSZEn4ICj-21" value="" style="edgeStyle=orthogonalEdgeStyle;rounded=0;orthogonalLoop=1;jettySize=auto;html=1;entryX=0;entryY=0.5;entryDx=0;entryDy=0;" parent="1" source="UR_d2A2pO-AxSZEn4ICj-22" target="UR_d2A2pO-AxSZEn4ICj-24" edge="1">
          <mxGeometry relative="1" as="geometry">
            <mxPoint x="430" y="1020" as="targetPoint" />
          </mxGeometry>
        </mxCell>
        <mxCell id="UR_d2A2pO-AxSZEn4ICj-29" style="edgeStyle=orthogonalEdgeStyle;rounded=0;orthogonalLoop=1;jettySize=auto;html=1;exitX=0.5;exitY=1;exitDx=0;exitDy=0;entryX=0.5;entryY=0;entryDx=0;entryDy=0;" parent="1" source="UR_d2A2pO-AxSZEn4ICj-22" target="UR_d2A2pO-AxSZEn4ICj-28" edge="1">
          <mxGeometry relative="1" as="geometry" />
        </mxCell>
        <mxCell id="UR_d2A2pO-AxSZEn4ICj-22" value="客户触发期间&lt;br&gt;是否生成过任务&lt;br&gt;任务数是否达到&lt;br&gt;触发频次上限" style="rhombus;whiteSpace=wrap;html=1;rounded=0;" parent="1" vertex="1">
          <mxGeometry x="939.99" y="222.5" width="140" height="135" as="geometry" />
        </mxCell>
        <mxCell id="UR_d2A2pO-AxSZEn4ICj-23" value="" style="edgeStyle=orthogonalEdgeStyle;rounded=0;orthogonalLoop=1;jettySize=auto;html=1;" parent="1" source="UR_d2A2pO-AxSZEn4ICj-24" target="UR_d2A2pO-AxSZEn4ICj-26" edge="1">
          <mxGeometry relative="1" as="geometry" />
        </mxCell>
        <mxCell id="UR_d2A2pO-AxSZEn4ICj-24" value="组装任务信息" style="rounded=0;whiteSpace=wrap;html=1;" parent="1" vertex="1">
          <mxGeometry x="1121" y="237.5" width="50" height="105" as="geometry" />
        </mxCell>
        <mxCell id="UR_d2A2pO-AxSZEn4ICj-25" value="" style="edgeStyle=orthogonalEdgeStyle;rounded=0;orthogonalLoop=1;jettySize=auto;html=1;" parent="1" source="UR_d2A2pO-AxSZEn4ICj-26" target="UR_d2A2pO-AxSZEn4ICj-27" edge="1">
          <mxGeometry relative="1" as="geometry" />
        </mxCell>
        <mxCell id="UR_d2A2pO-AxSZEn4ICj-26" value="随机分配负责人&lt;br&gt;优先级：售后&amp;gt;售前&amp;gt;管理员" style="rounded=0;whiteSpace=wrap;html=1;" parent="1" vertex="1">
          <mxGeometry x="1210" y="237.5" width="60" height="105" as="geometry" />
        </mxCell>
        <mxCell id="UR_d2A2pO-AxSZEn4ICj-27" value="创建任务" style="rounded=0;whiteSpace=wrap;html=1;" parent="1" vertex="1">
          <mxGeometry x="1310" y="237.5" width="50" height="105" as="geometry" />
        </mxCell>
        <mxCell id="UR_d2A2pO-AxSZEn4ICj-28" value="不生成任务" style="rounded=0;whiteSpace=wrap;html=1;" parent="1" vertex="1">
          <mxGeometry x="964.3700000000001" y="400" width="91.25" height="60" as="geometry" />
        </mxCell>
        <mxCell id="8yAuNWrvftPuLxMqmqyJ-1" value="&lt;div&gt;AI到期时间在任务模板&lt;/div&gt;&lt;div&gt;配置的范围内的客户&lt;/div&gt;&lt;div&gt;&lt;br&gt;&lt;/div&gt;" style="whiteSpace=wrap;html=1;shape=mxgraph.basic.cloud_callout" vertex="1" parent="1">
          <mxGeometry x="480" y="50" width="160" height="100" as="geometry" />
        </mxCell>
        <mxCell id="8yAuNWrvftPuLxMqmqyJ-2" value="&lt;div&gt;&lt;br&gt;&lt;/div&gt;&lt;div&gt;&lt;br&gt;&lt;/div&gt;&lt;div&gt;同时包含任务模板&lt;/div&gt;&lt;div&gt;配置的标签的客户&lt;/div&gt;" style="whiteSpace=wrap;html=1;shape=mxgraph.basic.cloud_callout;flipV=1;" vertex="1" parent="1">
          <mxGeometry x="480" y="440" width="160" height="100" as="geometry" />
        </mxCell>
      </root>
    </mxGraphModel>
  </diagram>
</mxfile>
